<svg id="svg8" height="512" viewBox="0 0 16.933333 16.933333" width="512" xmlns="http://www.w3.org/2000/svg" xmlns:svg="http://www.w3.org/2000/svg"><g id="layer2"><path id="path6751" d="m15.345835 5.820835c.43974 0 .79375.35401.79375.79375v8.731247c0 .43974-.35401.79375-.79375.79375h-13.62604c-.46769 0-.91958-.40927-.91958-.85989-.0009-3.45548-.006-6.019274-.006-9.458857" fill="#e4eff8"/><path id="path6753" d="m16.139585 15.345832c0 .43974-.35401.79375-.79375.79375h-13.62604c-.37406 0-.73381-.26304-.86455-.59841.10658.044.22042.0692.33538.0692h13.62604c.43974 0 .79375-.35402.79375-.79375v-8.734981c0-.0799-.0149-.15529-.03669-.227865.327155.09803.565865.397215.565862.757085z" fill="#c4dcf0"/><path id="path6755" d="m.793775 5.027082c0-.58631.47202-1.05833 1.05834-1.05833.58631 0 1.05833.47202 1.05833 1.05833v8.46664c0 .43974-.35401.79375-.79375.79375l-.39688.00003c-.51302 0-.92604.41301-.92604.92604z" fill="#549ad4"/><path id="path6757" d="m2.910415 13.493752c0 .43974-.35401.79375-.79375.79375h-.39687c-.51303 0-.92604.41301-.92604.92604v-1.36374c.12053-.0572.2541-.0915.39687-.0915h.39688c.43973 0 .79375-.35401.79375-.79375v-8.4688c0-.15544-.0349-.30189-.09458-.434585.367865.165475.623745.532915.6237425.963785z" fill="#3588cb"/><path id="path6759" d="m10.847919 11.1125c0 .292251-.236916.529167-.529167.529167s-.5291665-.236916-.5291663-.529167c.0000003-.29225.2369163-.529166.5291663-.529166.292251 0 .529167.236915.529167.529166z" fill="#ff5151"/><path id="path6761" d="m10.318753 3.9687543c0 1.7535038-1.4214957 3.1749996-3.1749995 3.1749999-1.753504-.0000001-3.1749998-1.4214959-3.1749999-3.1749999 0-1.753504 1.4214959-3.1749999 3.1749999-3.17499996 1.7535039.00000028 3.1749995 1.42149606 3.1749995 3.17499996z" fill="#ffca28"/><path id="path6763" d="m7.143755.793752a3.175 3.175 0 0 0 -2.48512 1.204578 3.175 3.175 0 0 1 1.955953-.675411 3.175 3.175 0 0 1 3.175 3.175 3.175 3.175 0 0 1 -.68988 1.970422 3.175 3.175 0 0 0 1.219047-2.499589 3.175 3.175 0 0 0 -3.175-3.175z" fill="#ecb200"/><path id="path6765" d="m7.6729201 8.9958391c0 .2922506-.236916.5291666-.5291666.5291666s-.5291666-.236916-.5291666-.5291666.236916-.5291666.5291666-.5291666.5291666.236916.5291666.5291666z" fill="#ff5151"/><path id="path6767" d="m12.964588 7.4083371h1.058333c.146579 0 .264584.1180041.264584.2645832v.7937502c0 .1465791-.118005.2645832-.264584.2645832h-1.058333c-.146579 0-.264583-.1180041-.264583-.2645832v-.7937502c0-.1465791.118004-.2645832.264583-.2645832z" fill="#549ad4"/><path id="path6769" d="m12.964588 7.408335c-.146579 0-.264583.118004-.264583.264584v.79375c0 .146579.118004.264583.264583.264583h1.058333c.14658 0 .264584-.118004.264584-.264583v-.264584h-.79375c-.146579 0-.264583-.118004-.264583-.264583v-.529167z" fill="#3588cb"/><path id="path6771" d="m13.493755 2.617903 2.645833 1.322916-2.645833 1.058333" fill="#ff5151"/><g fill="#ff2929"><path id="path6773" d="m13.493755 2.61793v2.38125l.529166-.211873v-1.904794z"/><path id="path6775" d="m10.147184 10.614339c-.2075431.07154-.3576005.266317-.3576008.498161-.0000003.292251.2369158.529167.5291668.529167.257493 0 .471442-.184249.518831-.427881-.05408.01864-.111159.03101-.171566.03101-.292251 0-.529166-.236916-.529166-.529167 0-.03476.0039-.0684.01033-.101286z"/><path id="path6777" d="m6.972184 8.4976726c-.2075434.071541-.3576008.2663163-.3576008.4981606 0 .2922506.2369162.5291667.5291667.5291667.2574922 0 .4714425-.1842484.5188315-.427881-.054075.01864-.1111596.031006-.1715659.031006-.2922505 0-.5291666-.2369161-.5291666-.5291667 0-.034758.00394-.068399.010335-.1012856z"/></g><path id="path6779" d="m3.704167 3.9687594c0 .5728729.14033 1.1124449.3891301 1.588017h-.9172601v-.5291672c0-.7283148-.5878799-1.3223999-1.3244699-1.3223999-.73658 0-1.32240007.5940851-1.32240007 1.3223999v10.1854248c0 .655033.52640987 1.191141 1.19166007 1.191141h13.6250089c.58174 0 1.05833-.470391 1.05833-1.058333v-8.7307328c0-.581741-.46729-1.0583328-1.05833-1.0583328h-1.58802v-.3787891l2.48047-.992187c.20935-.0859.22128-.3778948.0196-.480591l-2.50011-1.251086v-.07338c.002-.148551-.11913-.266497-.26768-.26476-.14612.0017-.26319.118637-.26148.26476v3.1760339h-3.03599c.24879-.4755719.39119-1.0151438.39119-1.588017 0-1.8964948-1.5374091-3.43958274-3.4390492-3.43958324-1.9016397-.0000005-3.4405998 1.54308644-3.4405998 3.43958244zm9.785969-3.43958294c-.14612.0017-.26319.12156-.26148.267684v.26561584c.008.345064.52153.345064.52916 0v-.26561584c.002-.148551-.11913-.26942-.26768-.267684zm-6.3453491.52968284c1.6022399 0 2.9098991 1.299388 2.9098991 2.9099001 0 1.6105119-1.3052292 2.9098998-2.9098991 2.9098998-1.6046698 0-2.9114498-1.2993869-2.9114498-2.9098998 0-1.610513 1.3092099-2.9099001 2.9114498-2.9099001zm4.9159791.5405401.18707.187585c.259.243521.61214-.116324.37517-.3746541l-.18759-.187586c-.0497-.05108-.11349-.07703-.18475-.077173-.23856-.0014-.35695.2800745-.1899.4518281zm2.4939-.3746521-.18758.187586c-.23904.2603971.1172.616099.37517.3746541l.18758-.187585c.17135-.1736891.0388-.4592551-.19637-.4516536-.0687.002-.13087.027668-.1788.076998zm-7.6760089.892449v1.8515671c.00015.07049.0284.1380159.0785.1875848l.79272.7927171c.2579598.244825.6175896-.1219801.3751696-.3731041l-.7167496-.716752v-1.7420129c.003-.1493569-.11831-.2658299-.2676601-.2640659-.1471301.0014-.2648501.1169399-.2619799.2640659zm6.8791589.9296591 1.73633.867131-1.73633.694531zm-11.9062489 1.1854579c.43501 0 .79479.3509951.79479.7953001v8.4666666c0 .286046-.23143.529166-.52917.529166h-.39636c-.25766 0-.4797601.07797-.66197.197921v-9.1937536c0-.444305.3576999-.7953001.79271-.7953001zm1.3244699 1.8536329h1.25677c.6301801.803245 1.6111299 1.3224 2.7119799 1.3224 1.09786 0 2.08026-.519015 2.7104299-1.3224h3.3734392v1.05885h-.26355c-.29892 0-.52969.240585-.52969.529167v.792717c-.009-.000476-.0183-.000476-.0274 0-.33704.04603-.30673.524556.0274.529683h.5147l-2.09083 1.5353068c-.14226-.132218-.33399-.213424-.54105-.213424-.20092.000001-.3872992.07619-.5276192.201538l-1.8732698-1.3513378c.012599-.05572.020201-.112773.020201-.172083 0-.44041-.3574801-.7953-.7927199-.7953-.4414401 0-.7953002.360058-.7953002.7953 0 .06821.0118.13305.0284.196371l-2.57142 1.9750728c-.27871.216351.0458.634414.3245299.418062l2.5404101-1.9523358c.1322599.09783.2979798.155546.4733599.155546.1840101 0 .3558001-.06331.4909299-.170015l1.8991 1.3689088c-.006.04054-.009.08336-.009.125573 0 .435243.3516301.792717.7927193.792717.44041 0 .795299-.357474.795299-.792717 0-.03551-.003-.07159-.008-.105936l2.73833-2.0112468h.708491c.353119 0 .353119-.529683 0-.529683v-.792717c0-.288583-.234391-.529167-.529171-.529167h-.265619v-1.05885h1.588019c.297741 0 .52917.237629.52917.529167v8.7307328c0 .289471-.231429.529167-.52917.529167h-13.6250089c-.3651701 0-.6619701-.290949-.6619701-.661975 0-.371027.29826-.660425.6619701-.660425h.39636c.58759 0 1.05885-.476593 1.05885-1.058333zm6.6130299 1.58595c-.24125.0085-.3506301.284248-.1875801.453202l.2103199.20929-.2103199.210323c-.2393101.26456.1275501.615853.37517.373104l.2092892-.20929.21032.20929c.25963.245587.61869-.123707.3731-.373104l-.20928-.210323.20928-.20929c.16938-.171901.0508-.45107-.18913-.453202-.0687.002-.13605.02871-.18397.07803l-.21032.210323-.2092892-.210323c-.0498-.05121-.11615-.07803-.1875899-.07803zm3.1760391.0021h1.05833v.79272h-1.05833zm-5.8203191 1.056269c.1420202 0 .2635502.116875.2635502.266134s-.12049.26355-.2635502.26355c-.1625197 0-.2661298-.135399-.2661298-.26355 0-.149259.1230699-.266134.2661298-.266134zm6.6150991 1.5880168c-.23672.000082-.35836.283025-.18965.451136l.21032.210323-.21032.209807c-.25012.250114.12505.625283.37517.37517l.20929-.210323.21032.210323c.26146.241381.61793-.125481.3731-.37517l-.20773-.209807.2098-.210323c.17079-.167973.0442-.456254-.19534-.451136-.0687.002-.13191.02871-.17983.07803l-.21032.209807-.20929-.209806c-.0498-.05121-.11408-.07803-.18552-.07803zm-3.44165.529177c.14513 0 .26562.116874.26562.266133 0 .149261-.1236.26355-.26562.26355-.14203 0-.26355-.114291-.26355-.26355s.11842-.266133.26355-.266133zm-5.0291489 1.056783c-.0516.000556-.10188.01619-.1446901.04496l-.7927199.529157c-.2945601.195337-.00201.63717.2930001.441833l.64648-.432014.6485397.432014c.0886.05878.2038501.05878.2924802 0l.64648-.432014.6469798.432014c.0891.0597.20545.0597.2945601 0l.6464699-.432014.64647.432014c.2945598.195337.58757-.246496.2930099-.441833l-.79272-.529167c-.0888-.05901-.2042498-.05901-.2930001 0l-.6464697.431499-.64854-.431499c-.0888-.05901-.2042499-.05901-.2930099 0l-.6464699.431499-.6485401-.431499c-.0438-.02945-.0955-.04511-.14831-.04496zm6.6171689 1.0604c-.35287 0-.35287.529167 0 .529167h.26458c.35286 0 .35286-.529167 0-.529167zm1.32291 0c-.35286 0-.35286.529167 0 .529167h.26459c.35286 0 .35286-.529167 0-.529167zm1.32292 0c-.35286 0-.35286.529167 0 .529167h.26458c.35287 0 .35287-.529167 0-.529167zm-9.2629989.264057c-.0516.000556-.10188.01619-.1446901.04496l-.7927199.5271c-.30133.193873-.003.64378.2930001.441317l.64648-.431499.6485397.431499c.0886.05878.2038501.05878.2924802 0l.64648-.431499.6469798.431499c.0891.0597.20545.0597.2945601 0l.6464699-.431499.64647.431499c.29563.202467.5943399-.247445.2930099-.441317l-.79272-.5271c-.0888-.05901-.2042498-.05901-.2930001 0l-.6464697.429431-.64854-.429431c-.0888-.05901-.2042499-.05901-.2930099 0l-.6464699.429431-.6485401-.429431c-.0438-.02945-.0955-.04511-.14831-.04496z" font-variant-ligatures="normal" font-variant-position="normal" font-variant-caps="normal" font-variant-numeric="normal" font-variant-alternates="normal" font-feature-settings="normal" text-indent="0" text-align="start" text-decoration-line="none" text-decoration-style="solid" text-decoration-color="#000000" text-transform="none" text-orientation="mixed" white-space="normal" shape-padding="0" isolation="auto" mix-blend-mode="normal" solid-color="#000000" solid-opacity="1" vector-effect="none"/></g></svg>