<svg id="Layer_1" enable-background="new 0 0 512 512" height="512" viewBox="0 0 512 512" width="512" xmlns="http://www.w3.org/2000/svg"><g><path d="m349.3 209.3c0 4.4-3.6 7.9-7.9 7.9-4.4 0-7.9-3.5-7.9-7.9 0-9.3-1.5-18.5-4.6-27.3-8.3-24.1-26.9-42.9-51-51.5-4.1-1.5-6.2-6-4.8-10.1 1.5-4.1 6-6.2 10.1-4.7 28.6 10.2 50.7 32.5 60.6 61.2 3.7 10.4 5.5 21.3 5.5 32.4z"/><path d="m373 166.9c-16.8-48.5-60.6-82.8-111.6-87.2-4.9-.5-9.8 1.3-13.5 4.6-3.7 3.4-5.8 8.2-5.8 13.2v281.5h-22c7.1-8.1 11.4-18.6 11.4-30.2v-223.2c0-25.4-20.6-46-46-46-19.5 0-36.6 12.3-43.2 30.2-31.2-1.7-56.8 23.2-56.8 53.9 0 5.8 1 11.7 2.8 17.2-21.7 10.1-35.9 31.7-35.9 56.3s14.1 46.2 35.9 56.3c-1.8 5.5-2.8 11.4-2.8 17.2 0 30.6 25.6 55.6 56.8 53.8 2.2 5.8 5.5 11 9.6 15.4-12.1 3.1-21.1 14.1-21.1 27.1 0 8 3.3 15.2 8.6 20.3-5.3 5.2-8.6 12.3-8.6 20.3 0 15.5 12.6 28.2 28.1 28.2h8.4v1.6c0 18.5 15.1 33.6 33.6 33.6h59.8c18.5 0 33.6-15.1 33.6-33.6v-1.6h8.4c15.5 0 28.1-12.6 28.1-28.2 0-7.9-3.4-15.1-8.7-20.3 5.3-5.1 8.7-12.3 8.7-20.3 0-15.5-12.6-28.1-28.1-28.1h-1.5c1.4-27.7 13.6-53.5 34.2-71.5 26.7-23.3 42.5-55.5 44.4-90.8.2-2.5.2-4.9.2-7.4 0-14.4-2.3-28.6-7-42.3zm-224.1 159.4c-7.1 7.1-8.8 16-9.1 22.6h-.3c-21 0-38.1-17.1-38.1-38.1 0-6.2 1.5-12.3 4.4-17.8 2.8-4.6 6.5-8.6 10.8-12 4.6-3.5 10.1-6.1 15.6-7.5 4.2-1.1 6.8-5.4 5.7-9.6s-5.4-6.8-9.6-5.7c-7.6 1.9-15 5.5-21.3 10.3-4.2 3.2-7.9 6.9-11.1 11.1-16.7-7.4-27.6-23.7-27.6-42.3 0-20.5 13.2-38.4 32.9-44.4 3.1-.9 9.2-2.2 16.3-.1 7.3 2.2 11.8 6.6 14 9.1 1.6 1.8 3.8 2.8 6.1 2.8 1.8 0 3.6-.6 5.1-1.8 3.4-2.8 3.8-7.8 1-11.1-5.7-6.8-13.4-11.8-21.7-14.2-5.9-1.7-12.3-2.1-18.4-1.3-1.4-4.1-2.2-8.3-2.2-12.6 0-21.1 17.1-38.1 38.1-38.1 2.3 0 4.7.2 7.2.7h.1c4.1.7 10.1 2.6 15.8 7.2 3.3 2.7 6.1 5.9 8.3 9.7 1.5 2.5 4.1 3.9 6.8 3.9 1.4 0 2.7-.3 4-1.1 3.7-2.2 5.1-7.1 2.8-10.8-3.2-5.4-7.2-10.2-12.1-14.1-4.3-3.4-9.1-6-14.2-7.9 4.8-10.6 15.3-17.7 27.3-17.7 16.6 0 30.2 13.5 30.2 30.2v223.2c0 16.6-13.5 30.2-30.2 30.2-14.4 0-26.9-10.3-29.6-24.5-.2-1.2-1.8-11.1 4.2-17.1 1.5-1.4 3.3-2.6 5.3-3.4 4.1-1.5 6.1-6.1 4.5-10.2-1.5-4.1-6.1-6.1-10.2-4.6s-7.8 3.9-10.8 7zm129.6 151.1c0 9.8-8 17.8-17.8 17.8h-59.8c-9.8 0-17.8-8-17.8-17.8v-1.6h95.4zm24.2-17.4h-143.8c-6.8 0-12.3-5.6-12.3-12.4s5.5-12.4 12.3-12.4h143.8c6.8 0 12.3 5.5 12.3 12.4 0 6.8-5.5 12.4-12.3 12.4zm0-65.2c6.8 0 12.3 5.5 12.3 12.3s-5.5 12.4-12.3 12.4h-143.8c-6.8 0-12.3-5.5-12.3-12.4 0-6.8 5.5-12.3 12.3-12.3zm61.4-179.1c-1.7 31-15.5 59.4-39.1 79.8-24.1 21-38.4 51.1-39.8 83.4h-27.4v-281.4c0-.8.4-1.3.7-1.5.3-.3.7-.6 1.5-.5 44.8 3.9 83.3 34 98 76.6 4.2 12 6.2 24.5 6.2 37.3 0 2 0 4.1-.1 6.3z"/><g fill="#ff826e"><path d="m278.5 475.8v1.6c0 9.8-8 17.8-17.8 17.8h-59.8c-9.8 0-17.8-8-17.8-17.8v-1.6z"/><path d="m315 447.6c0 6.8-5.5 12.4-12.3 12.4h-143.8c-6.8 0-12.3-5.6-12.3-12.4s5.5-12.4 12.3-12.4h143.8c6.8 0 12.3 5.6 12.3 12.4z"/><path d="m315 407.1c0 6.8-5.5 12.4-12.3 12.4h-143.8c-6.8 0-12.3-5.5-12.3-12.4 0-6.8 5.5-12.3 12.3-12.3h143.8c6.8 0 12.3 5.5 12.3 12.3z"/></g><path d="m215.7 125.6v223.2c0 16.6-13.5 30.2-30.2 30.2-14.4 0-26.9-10.3-29.6-24.5-.2-1.2-1.8-11.1 4.2-17.1 1.5-1.4 3.3-2.6 5.3-3.4 4.1-1.5 6.1-6.1 4.5-10.2-1.5-4.1-6.1-6.1-10.2-4.6-4.2 1.6-7.8 3.9-10.8 7-7.1 7.1-8.8 16-9.1 22.6h-.3c-21 0-38.1-17.1-38.1-38.1 0-6.2 1.5-12.3 4.4-17.8 2.8-4.6 6.5-8.6 10.8-12 4.6-3.5 10.1-6.1 15.6-7.5 4.2-1.1 6.8-5.4 5.7-9.6s-5.4-6.8-9.6-5.7c-7.6 1.9-15 5.5-21.3 10.3-4.2 3.2-7.9 6.9-11.1 11.1-16.7-7.4-27.6-23.7-27.6-42.3 0-20.5 13.2-38.4 32.9-44.4 3.1-.9 9.2-2.2 16.3-.1 7.3 2.2 11.8 6.6 14 9.1 1.6 1.8 3.8 2.8 6.1 2.8 1.8 0 3.6-.6 5.1-1.8 3.4-2.8 3.8-7.8 1-11.1-5.7-6.7-13.4-11.7-21.7-14.1-5.9-1.7-12.3-2.1-18.4-1.3-1.4-4.1-2.2-8.3-2.2-12.6 0-21.1 17.1-38.1 38.1-38.1 2.3 0 4.7.2 7.2.7h.1c4.1.7 10.1 2.6 15.8 7.2 3.3 2.7 6.1 5.9 8.3 9.7 1.5 2.5 4.1 3.9 6.8 3.9 1.4 0 2.7-.3 4-1.1 3.7-2.2 5.1-7.1 2.8-10.8-3.2-5.4-7.2-10.2-12.1-14.1-4.3-3.4-9.1-6-14.2-7.9 4.8-10.6 15.3-17.7 27.3-17.7 16.7-.1 30.2 13.5 30.2 30.1z" fill="#fcd770"/><path d="m358 172c-14.7-42.6-53.2-72.7-98-76.6-.7-.1-1.2.2-1.5.5-.3.2-.7.7-.7 1.5v281.4h27.4c1.4-32.3 15.7-62.4 39.8-83.4 23.5-20.4 37.4-48.8 39.1-79.8.2-2.2.2-4.3.2-6.4-.1-12.6-2.1-25.2-6.3-37.2zm-16.5 45.2c-4.4 0-7.9-3.5-7.9-7.9 0-9.3-1.5-18.5-4.6-27.3-8.3-24.1-26.9-42.9-51-51.5-4.1-1.5-6.2-6-4.8-10.1 1.5-4.1 6-6.2 10.1-4.7 28.6 10.2 50.7 32.5 60.6 61.2 3.6 10.4 5.4 21.3 5.4 32.4 0 4.4-3.5 7.9-7.8 7.9z" fill="#e6e9ed"/><path d="m386.9 62.3-36.5 36.5c-3.1 3.1-3.1 8.1 0 11.2 1.5 1.5 3.6 2.3 5.6 2.3s4-.8 5.6-2.3l36.5-36.5c3.1-3.1 3.1-8.1 0-11.2-3.1-3-8.1-3-11.2 0z"/><path d="m459.4 210.4c0-4.4-3.5-7.9-7.9-7.9h-51.6c-4.4 0-7.9 3.5-7.9 7.9s3.5 7.9 7.9 7.9h51.6c4.4 0 7.9-3.5 7.9-7.9z"/><path d="m361.6 310.9c-3.1-3.1-8.1-3.1-11.2 0s-3.1 8.1 0 11.2l36.5 36.5c1.5 1.5 3.6 2.3 5.6 2.3s4-.8 5.6-2.3c3.1-3.1 3.1-8.1 0-11.2z"/><path d="m257.9 60.5v-51.6c0-4.4-3.5-7.9-7.9-7.9s-7.9 3.5-7.9 7.9v51.6c0 4.4 3.5 7.9 7.9 7.9 4.3 0 7.9-3.5 7.9-7.9z"/></g></svg>