<svg height="512" viewBox="0 0 512 512" width="512" xmlns="http://www.w3.org/2000/svg"><g id="Layer_1" data-name="Layer 1"><path d="m452.9 205.555v275.691h-91.9v-91.9h-91.9v-91.9h91.9v-91.9z" fill="#6cf"/><path d="m242.891 99.754v183.794h-91.9v-91.9h-91.891v-183.791h91.9v91.9z" fill="#ffdf40"/><path d="m334.788 412.246v91.9h-275.688v-182.026h91.9v90.126z" fill="#ff5959"/><path d="m452.9 389.349h-91.9v-91.9zm-183.794-91.9v91.9h91.9zm91.9-91.9v91.9h91.9zm0 183.794v91.9h91.9z" fill="#4da6ff"/><path d="m150.994 191.651h-91.894v-91.9zm0-91.9v91.9h91.9zm-91.894-91.894v91.9h91.9zm91.9 183.794v91.9h91.9z" fill="#ffbe40"/><path d="m59.578 412.727 91.416 91.416h-91.894v-182.023l91.9 90.126zm91.416 91.416h91.9l-91.9-91.9zm91.9-91.9v91.9h91.9z" fill="#e63a57"/><path d="m452.9 200.555h-91.9a5 5 0 0 0 -5 5v86.9h-86.9a5 5 0 0 0 -5 5v91.9a5 5 0 0 0 5 5h86.9v86.9a5 5 0 0 0 5 5h91.9a5 5 0 0 0 5-5v-275.7a5 5 0 0 0 -5-5zm-86.9 10h81.9v81.9h-81.9zm81.9 173.8h-81.9v-81.9h81.9zm-173.795-81.9h81.9v81.9h-81.9zm173.795 173.791h-81.9v-81.9h81.9zm-388.8-279.595h86.9v86.9a5 5 0 0 0 5 5h91.9a5 5 0 0 0 5-5v-183.797a5 5 0 0 0 -5-5h-86.9v-86.897a5 5 0 0 0 -5-5h-91.9a5 5 0 0 0 -5 5v183.794a5 5 0 0 0 5 5zm86.9-10h-81.9v-81.9h81.9zm91.9 91.9h-81.9v-81.9h81.9zm0-91.9h-81.9v-81.9h81.9zm-91.9-173.794v81.9h-81.9v-81.9zm188.788 394.389h-178.794v-85.126a5 5 0 0 0 -5-5h-91.894a5 5 0 0 0 -5 5v182.023a5 5 0 0 0 5 5h275.688a5 5 0 0 0 5-5v-91.9a5 5 0 0 0 -5-4.997zm-178.794 10h81.9v81.9h-81.9zm-10-90.126v80.126h-81.894v-80.126zm0 172.023h-81.894v-81.9h81.9zm183.794 0h-81.9v-81.9h81.9z"/></g></svg>